<svg id="Capa_1" enable-background="new 0 0 512 512" height="512" viewBox="0 0 512 512" width="512" xmlns="http://www.w3.org/2000/svg"><g><g><path d="m496.022 256c0 110.59-54.152 204.81-152.372 240.59-27.34 9.97-56.86 15.41-87.65 15.41-50.62 0-97.81-14.7-137.54-40.05-71.23-45.46-93.883-125.19-93.883-215.95 0-72.03 5.183-137.12 53.063-183.64 46.11-44.78 109.01-72.36 178.36-72.36s132.25 27.58 178.36 72.36c47.88 46.52 61.662 111.61 61.662 183.64z" fill="#80b4fb"/><path d="m201.77 471.95c28.59 18.24 61.05 30.97 95.86 36.67-13.55 2.23-27.45 3.38-41.63 3.38-50.62 0-97.81-14.7-137.54-40.05-71.23-45.46-93.883-125.19-93.883-215.95 0-72.03 5.183-137.12 53.063-183.64 46.11-44.78 109.01-72.36 178.36-72.36 14.19 0 28.1 1.15 41.66 3.38-52.73 8.62-100.03 33.36-136.71 68.98-47.88 46.52-77.64 111.61-77.64 183.64 0 90.76 47.23 170.49 118.46 215.95z" fill="#61a2f9"/><path d="m207.6 358.68c0 10.19-4.13 19.42-10.81 26.1s-15.91 10.81-26.1 10.81h-16.96c-15.43 0-27.94 12.5-27.94 27.93v20.32c0 10.21-2.66 19.8-7.33 28.11-33.037-21.085-60.911-49.541-81.305-83.051-3.917-6.436.711-21.33-2.638-28.121s-14.672-5.481-17.419-12.597c-11.043-28.602-17.098-59.685-17.098-92.181 0-72.03 29.76-137.12 77.64-183.64h77.09c19.28 0 34.91 15.63 34.91 34.92 0 9.64-3.91 18.37-10.22 24.68-6.32 6.32-15.05 10.23-24.69 10.23h-46.89c-15.43 0-27.94 12.51-27.94 27.94 0 7.71 3.13 14.69 8.18 19.75 5.06 5.05 12.04 8.18 19.76 8.18h10.97c18.18 0 32.92 14.74 32.92 32.92 0 9.09-3.69 17.32-9.64 23.28-5.96 5.96-14.19 9.64-23.28 9.64h-23.94c-15.98 0-28.93 12.95-28.93 28.93 0 7.99 3.24 15.22 8.47 20.46 5.24 5.23 12.47 8.47 20.46 8.47h75.82c20.38 0 36.91 16.53 36.91 36.92z" fill="#a2f4c1"/><path d="m512 256c0 110.59-70.13 204.81-168.35 240.59-10.37-6.05-17.33-17.3-17.33-30.17 0-9.64 3.91-18.37 10.22-24.69 6.32-6.32 15.05-10.23 24.69-10.23h21.95c15.43 0 27.93-12.5 27.93-27.93 0-7.71-3.13-14.7-8.18-19.75-5.05-5.06-12.03-8.18-19.75-8.18h-10.97c-18.18 0-32.92-14.74-32.92-32.93 0-9.09 3.69-17.32 9.64-23.28 5.96-5.95 14.19-9.64 23.28-9.64h78.81c15.98 0 28.93-12.95 28.93-28.93 0-7.99-3.24-15.22-8.47-20.46-5.24-5.23-12.47-8.47-20.46-8.47h-130.69c-20.38 0-36.91-16.53-36.91-36.91 0-10.2 4.13-19.42 10.81-26.1s15.91-10.81 26.1-10.81h16.96c15.43 0 27.93-12.51 27.93-27.94v-20.32c0-31.75 25.74-57.49 57.5-57.49h11.64c47.88 46.52 77.64 111.61 77.64 183.64z" fill="#a2f4c1"/><path d="m79.9 170.13c0 7.71 3.13 14.69 8.18 19.75.98.98 2.03 1.88 3.15 2.71-5.17 20.28-7.92 41.52-7.92 63.41 0 3.42.07 6.82.21 10.21-10.34 4.41-17.58 14.67-17.58 26.62 0 4.36.97 8.5 2.7 12.2 1.43 3.09 3.4 5.88 5.77 8.26 4.56 4.55 10.62 7.59 17.38 8.3 1.54 5.82 3.27 11.55 5.21 17.2 8.29 24.28 20.13 46.92 34.91 67.29-3.83 4.77-6.12 10.84-6.12 17.44v20.32c0 10.21-2.66 19.8-7.33 28.11-33.04-21.09-60.92-49.55-81.29-83.06-3.925-6.435.698-21.323-2.652-28.113s-14.673-5.482-17.418-12.597c-11.04-28.6-17.1-59.68-17.1-92.18 0-72.03 29.76-137.12 77.64-183.64h77.09c1.95 0 3.87.16 5.74.47-20.5 20.01-37.64 43.44-50.52 69.36h-2.11c-15.43 0-27.94 12.51-27.94 27.94z" fill="#78d0b1"/></g><g><circle cx="405.875" cy="405.875" fill="#f6e266" r="106.125"/><circle cx="405.875" cy="405.875" fill="#ffc250" r="76.886"/><path d="m416.718 399.262c-1.605-.567-3.244-1.16-4.882-1.776v-27.027c3.459.963 5.669 2.633 6.326 3.179 2.761 2.297 6.861 1.92 9.156-.841 2.296-2.761 1.92-6.86-.841-9.156-1.373-1.142-6.644-5.124-14.641-6.45v-5.275c0-3.591-2.911-6.502-6.502-6.502s-6.502 2.911-6.502 6.502v5.753c-.755.176-1.518.371-2.296.605-8.704 2.622-15.207 10.065-16.97 19.424-1.612 8.552 1.14 16.808 7.182 21.546 3.087 2.421 6.896 4.638 12.085 6.969v34.681c-4.368-.393-7.273-1.561-12.125-4.735-3.004-1.965-7.034-1.124-9 1.882-1.966 3.005-1.123 7.035 1.882 9 7.512 4.914 12.698 6.463 19.244 6.89v5.904c0 3.591 2.911 6.502 6.502 6.502s6.502-2.911 6.502-6.502v-6.473c5.062-1.101 9.658-3.469 13.517-7.015 4.91-4.511 8.224-10.623 9.332-17.21 2.265-13.489-4.787-25.216-17.969-29.875zm-21.945-10.25c-2.174-1.705-3.127-5.201-2.428-8.906.603-3.201 2.622-7.005 6.488-8.818v20.387c-1.512-.858-2.889-1.745-4.06-2.663zm27.088 37.969c-.85 5.057-4.253 10.419-10.025 12.81v-28.464c.183.065.363.13.548.195 10.577 3.739 9.928 12.778 9.477 15.459z" fill="#f6e266"/></g><path d="m511.52 76.88-20.09 75.91-1.37 5.15c-2.73 10.3-15.6 13.79-23.16 6.27l-12.11-12.03-67.36 66.99c-7.92 7.96-20.56 8.7-29.34 1.71l-61.68-49.05-199.41 166.96-59.83 50.1c-7.85-12.87-14.58-26.48-20.07-40.71l51.54-43.15 213.2-178.53c8.02-6.75 19.69-6.91 27.9-.39l60.34 48 53.44-53.04-16.08-15.98c-7.56-7.52-4.15-20.41 6.15-23.2l26.4-7.16 54.52-14.76c10.3-2.78 19.74 6.61 17.01 16.91z" fill="#dd636e"/></g></svg>