<?xml version="1.0" encoding="iso-8859-1"?>
<!-- Generator: Adobe Illustrator 19.0.0, SVG Export Plug-In . SVG Version: 6.00 Build 0)  -->
<svg version="1.1" id="Capa_1" xmlns="http://www.w3.org/2000/svg" xmlns:xlink="http://www.w3.org/1999/xlink" x="0px" y="0px"
	 viewBox="0 0 512 512" style="enable-background:new 0 0 512 512;" xml:space="preserve">
<path style="fill:#FFCC67;" d="M256,0C127.992,0,24.24,103.76,24.24,231.76S128,463.52,256,463.52s231.76-103.76,231.76-231.76
	S384.008,0,256,0L256,0z"/>
<path style="fill:#629FD6;" d="M417.44,323.704h-7.584c-7.544-31.728-36.136-55.504-70.336-55.504
	c-8.312,0-16.728,1.832-23.696,4.152c-16.728-47.472-62.024-81.568-115.448-81.568c-67.632,0-122.456,54.544-122.456,121.84
	c0,4.24,0.232,8.416,0.64,12.552C34.112,332.824,0,371.52,0,417.84C0,469.616,42.576,512,94.608,512H417.4
	c52.032,0,94.6-42.36,94.6-94.16C512.032,366.08,469.464,323.704,417.44,323.704z"/>
<g>
</g>
<g>
</g>
<g>
</g>
<g>
</g>
<g>
</g>
<g>
</g>
<g>
</g>
<g>
</g>
<g>
</g>
<g>
</g>
<g>
</g>
<g>
</g>
<g>
</g>
<g>
</g>
<g>
</g>
</svg>
