<?xml version="1.0" encoding="iso-8859-1"?>
<!-- Generator: Adobe Illustrator 19.0.0, SVG Export Plug-In . SVG Version: 6.00 Build 0)  -->
<svg version="1.1" id="Capa_1" xmlns="http://www.w3.org/2000/svg" xmlns:xlink="http://www.w3.org/1999/xlink" x="0px" y="0px"
	 viewBox="0 0 512 512" style="enable-background:new 0 0 512 512;" xml:space="preserve">
<g>
	<polygon style="fill:#FFCC67;" points="191.24,271.508 126.08,238.396 191.24,205.276 	"/>
	<polygon style="fill:#FFCC67;" points="446.84,271.508 512,238.396 446.84,205.276 	"/>
	<polygon style="fill:#FFCC67;" points="189.776,190.044 154.952,125.788 227.392,135.508 	"/>
	<polygon style="fill:#FFCC67;" points="448.296,190.044 483.128,125.788 410.68,135.508 	"/>
	<polygon style="fill:#FFCC67;" points="330.784,104.14 385.968,56.212 392.168,129.044 	"/>
	<polygon style="fill:#FFCC67;" points="307.288,104.14 252.104,56.212 245.904,129.044 	"/>
	<polygon style="fill:#FFCC67;" points="189.776,288.892 154.952,353.148 227.392,343.428 	"/>
	<polygon style="fill:#FFCC67;" points="448.296,288.892 483.128,353.148 410.68,343.428 	"/>
	<polygon style="fill:#FFCC67;" points="330.784,374.796 385.968,422.716 392.168,349.892 	"/>
	<polygon style="fill:#FFCC67;" points="307.288,374.796 252.104,422.716 245.904,349.892 	"/>
	<path style="fill:#FFCC67;" d="M317.904,129.044c-60.992,0-110.424,49.432-110.424,110.424s49.432,110.424,110.424,110.424
		s110.424-49.432,110.424-110.424S378.896,129.044,317.904,129.044L317.904,129.044z"/>
</g>
<path style="fill:#629FD6;" d="M332.304,305.9h-6.04c-6.008-25.256-28.768-44.184-55.992-44.184c-6.616,0-13.312,1.456-18.864,3.304
	c-13.312-37.792-49.376-64.928-91.904-64.928c-53.84,0-97.48,43.424-97.48,96.992c0,3.376,0.184,6.704,0.512,9.992
	C27.16,313.164,0,343.964,0,380.836c0,41.216,33.888,74.952,75.312,74.952h256.96c41.424,0,75.312-33.72,75.312-74.952
	C407.616,339.636,373.728,305.9,332.304,305.9z"/>
<g>
</g>
<g>
</g>
<g>
</g>
<g>
</g>
<g>
</g>
<g>
</g>
<g>
</g>
<g>
</g>
<g>
</g>
<g>
</g>
<g>
</g>
<g>
</g>
<g>
</g>
<g>
</g>
<g>
</g>
</svg>
